<svg width="175" height="210" viewBox="0 0 175 210" fill="none" xmlns="http://www.w3.org/2000/svg">
<path d="M50.9266 122H46.0539C45.9273 122 45.8641 121.93 45.8641 121.789V97.1516H40.2531C40.1125 97.1516 40.0422 97.0812 40.0422 96.9406L40.0844 92.1102C40.0844 91.9977 40.1406 91.9414 40.2531 91.9414H56.6641C56.8188 91.9414 56.8961 91.9977 56.8961 92.1102V96.9406C56.8961 97.0812 56.8398 97.1516 56.7273 97.1516H51.0531L51.0953 121.789C51.0953 121.93 51.0391 122 50.9266 122ZM64.068 122H59.1742C59.0617 122 59.0055 121.93 59.0055 121.789L59.0898 92.1102C59.0898 91.9977 59.1461 91.9414 59.2586 91.9414H67.9914C69.5523 91.9414 70.9867 92.3211 72.2945 93.0805C73.6023 93.8398 74.643 94.8594 75.4164 96.1391C76.2039 97.4187 76.5977 98.8672 76.5977 100.484C76.5977 101.539 76.4359 102.495 76.1125 103.353C75.7891 104.211 75.4094 104.935 74.9734 105.526C74.5516 106.116 74.1648 106.552 73.8133 106.834C75.3742 108.563 76.1547 110.595 76.1547 112.93L76.1969 121.789C76.1969 121.93 76.1266 122 75.9859 122H71.0922C70.9797 122 70.9234 121.958 70.9234 121.873V112.93C70.9234 111.889 70.5578 110.989 69.8266 110.23C69.0953 109.47 68.1953 109.091 67.1266 109.091H64.2789L64.2367 121.789C64.2367 121.93 64.1805 122 64.068 122ZM67.9914 97.1094H64.2789V103.902H67.9914C68.8773 103.902 69.6648 103.571 70.3539 102.91C71.057 102.249 71.4086 101.441 71.4086 100.484C71.4086 99.5703 71.0711 98.7828 70.3961 98.1219C69.7211 97.4469 68.9195 97.1094 67.9914 97.1094ZM78.3906 121.789L83.7484 92.1102C83.7766 91.9977 83.8469 91.9414 83.9594 91.9414H90.2242C90.3367 91.9414 90.407 91.9977 90.4352 92.1102L95.582 121.789C95.5961 121.93 95.5398 122 95.4133 122H90.625C90.4844 122 90.407 121.93 90.393 121.789L89.9289 118.625H84.0438L83.5797 121.789C83.5656 121.93 83.4953 122 83.3688 122H78.5594C78.4469 122 78.3906 121.93 78.3906 121.789ZM86.8492 101.877L84.9086 114.005H89.0641L87.2922 101.877L87.0391 100.273L86.8492 101.877ZM102.986 122H98.6617C98.4367 122 98.3242 121.902 98.3242 121.705L98.282 92.2789C98.282 92.0539 98.3945 91.9414 98.6195 91.9414H102.522L109.82 108.964L109.609 92.2789C109.609 92.0539 109.736 91.9414 109.989 91.9414H114.271C114.44 91.9414 114.524 92.0539 114.524 92.2789L114.566 121.747C114.566 121.916 114.496 122 114.355 122H110.559L103.07 106.095L103.387 121.662C103.387 121.887 103.253 122 102.986 122ZM125.662 122.422C124.129 122.422 122.716 122.028 121.422 121.241C120.142 120.453 119.116 119.405 118.342 118.098C117.583 116.776 117.203 115.327 117.203 113.752V111.77C117.203 111.615 117.273 111.537 117.414 111.537H122.266C122.378 111.537 122.434 111.615 122.434 111.77V113.752C122.434 114.695 122.751 115.51 123.384 116.199C124.016 116.874 124.776 117.212 125.662 117.212C126.562 117.212 127.328 116.867 127.961 116.178C128.594 115.475 128.91 114.666 128.91 113.752C128.91 112.698 128.221 111.777 126.843 110.989C126.618 110.848 126.323 110.68 125.957 110.483C125.605 110.272 125.184 110.033 124.691 109.766C124.199 109.498 123.721 109.238 123.257 108.985C122.793 108.718 122.343 108.465 121.907 108.226C120.332 107.298 119.158 106.137 118.384 104.745C117.625 103.339 117.245 101.764 117.245 100.02C117.245 98.4172 117.639 96.9687 118.427 95.675C119.214 94.3953 120.241 93.3828 121.506 92.6375C122.786 91.8781 124.171 91.4984 125.662 91.4984C127.195 91.4984 128.601 91.8781 129.88 92.6375C131.16 93.4109 132.18 94.4375 132.939 95.7172C133.713 96.9969 134.099 98.4312 134.099 100.02V103.564C134.099 103.677 134.043 103.733 133.93 103.733H129.079C128.966 103.733 128.91 103.677 128.91 103.564L128.868 100.02C128.868 99.0078 128.552 98.1852 127.919 97.5523C127.286 96.9195 126.534 96.6031 125.662 96.6031C124.776 96.6031 124.016 96.9406 123.384 97.6156C122.751 98.2906 122.434 99.0922 122.434 100.02C122.434 100.962 122.631 101.75 123.025 102.383C123.433 103.016 124.171 103.62 125.24 104.197C125.352 104.253 125.613 104.394 126.02 104.619C126.428 104.844 126.878 105.097 127.37 105.378C127.877 105.645 128.334 105.891 128.741 106.116C129.149 106.327 129.395 106.454 129.48 106.496C130.914 107.298 132.046 108.282 132.876 109.449C133.72 110.616 134.141 112.051 134.141 113.752C134.141 115.398 133.762 116.874 133.002 118.182C132.229 119.49 131.202 120.523 129.923 121.283C128.643 122.042 127.223 122.422 125.662 122.422Z" fill="white"/>
<path d="M14.2945 172H2.78994C2.62275 172 2.53916 171.896 2.53916 171.687L2.66455 127.58C2.66455 127.413 2.74814 127.33 2.91533 127.33H15.2663C17.6696 127.33 19.8535 127.915 21.818 129.085C23.7406 130.255 25.2558 131.812 26.3634 133.756C27.471 135.679 28.0248 137.768 28.0248 140.025C28.0248 141.864 27.6068 143.578 26.7709 145.166C25.935 146.755 24.9423 148.04 23.7929 149.022C25.0259 150.255 25.9872 151.687 26.6769 153.317C27.3665 154.947 27.7113 156.661 27.7113 158.458C27.7113 160.945 27.1157 163.212 25.9245 165.26C24.7124 167.308 23.0928 168.949 21.0656 170.182C19.0385 171.394 16.7814 172 14.2945 172ZM15.2663 134.947H10.3761V145.041H15.2663C16.7501 145.041 17.9518 144.519 18.8713 143.474C19.7908 142.408 20.2506 141.258 20.2506 140.025C20.2506 138.667 19.7595 137.486 18.7772 136.483C17.795 135.459 16.6247 134.947 15.2663 134.947ZM14.2945 152.815H10.3761L10.3134 164.163H14.2945C15.841 164.163 17.1681 163.599 18.2757 162.47C19.3833 161.342 19.9371 160.004 19.9371 158.458C19.9371 156.911 19.3833 155.584 18.2757 154.477C17.1681 153.369 15.841 152.815 14.2945 152.815ZM28.8398 171.687L36.8021 127.58C36.8439 127.413 36.9484 127.33 37.1156 127.33H46.4259C46.5931 127.33 46.6976 127.413 46.7394 127.58L54.3882 171.687C54.4091 171.896 54.3255 172 54.1374 172H47.0215C46.8125 172 46.6976 171.896 46.6767 171.687L45.987 166.984H37.241L36.5514 171.687C36.5305 171.896 36.426 172 36.2379 172H29.0906C28.9234 172 28.8398 171.896 28.8398 171.687ZM41.4103 142.094L38.5263 160.119H44.7018L42.0686 142.094L41.6924 139.712L41.4103 142.094ZM65.9241 172H58.6515C58.4843 172 58.4007 171.896 58.4007 171.687L58.5261 127.58C58.5261 127.413 58.6097 127.33 58.7769 127.33H71.7548C74.0745 127.33 76.2061 127.894 78.1497 129.022C80.0933 130.151 81.6397 131.666 82.7892 133.568C83.9595 135.47 84.5446 137.622 84.5446 140.025C84.5446 141.593 84.3043 143.014 83.8236 144.289C83.343 145.563 82.7787 146.64 82.1309 147.517C81.5039 148.395 80.9292 149.043 80.4067 149.461C82.7265 152.032 83.8863 155.051 83.8863 158.521L83.949 171.687C83.949 171.896 83.8445 172 83.6355 172H76.3629C76.1957 172 76.1121 171.937 76.1121 171.812V158.521C76.1121 156.974 75.5687 155.637 74.482 154.508C73.3953 153.379 72.0578 152.815 70.4695 152.815H66.2376L66.1749 171.687C66.1749 171.896 66.0913 172 65.9241 172ZM71.7548 135.01H66.2376V145.104H71.7548C73.0714 145.104 74.2417 144.613 75.2657 143.63C76.3106 142.648 76.8331 141.446 76.8331 140.025C76.8331 138.667 76.3315 137.497 75.3284 136.514C74.3253 135.511 73.1341 135.01 71.7548 135.01ZM101.128 172H89.6229C89.4558 172 89.3722 171.896 89.3722 171.687L89.4976 127.58C89.4976 127.413 89.5812 127.33 89.7483 127.33H102.099C104.503 127.33 106.687 127.915 108.651 129.085C110.574 130.255 112.089 131.812 113.196 133.756C114.304 135.679 114.858 137.768 114.858 140.025C114.858 141.864 114.44 143.578 113.604 145.166C112.768 146.755 111.775 148.04 110.626 149.022C111.859 150.255 112.82 151.687 113.51 153.317C114.2 154.947 114.544 156.661 114.544 158.458C114.544 160.945 113.949 163.212 112.758 165.26C111.545 167.308 109.926 168.949 107.899 170.182C105.871 171.394 103.614 172 101.128 172ZM102.099 134.947H97.2091V145.041H102.099C103.583 145.041 104.785 144.519 105.704 143.474C106.624 142.408 107.084 141.258 107.084 140.025C107.084 138.667 106.592 137.486 105.61 136.483C104.628 135.459 103.458 134.947 102.099 134.947ZM101.128 152.815H97.2091L97.1464 164.163H101.128C102.674 164.163 104.001 163.599 105.109 162.47C106.216 161.342 106.77 160.004 106.77 158.458C106.77 156.911 106.216 155.584 105.109 154.477C104.001 153.369 102.674 152.815 101.128 152.815ZM140.155 172H119.403C119.236 172 119.152 171.896 119.152 171.687L119.215 127.58C119.215 127.413 119.299 127.33 119.466 127.33H140.093C140.26 127.33 140.343 127.434 140.343 127.643V134.822C140.343 134.989 140.26 135.072 140.093 135.072H126.927V145.104H140.093C140.26 145.104 140.343 145.187 140.343 145.354L140.406 152.627C140.406 152.794 140.323 152.878 140.155 152.878H126.927V164.1H140.155C140.323 164.1 140.406 164.205 140.406 164.414V171.749C140.406 171.916 140.323 172 140.155 172ZM153.635 172H146.362C146.195 172 146.111 171.896 146.111 171.687L146.237 127.58C146.237 127.413 146.32 127.33 146.488 127.33H159.466C161.785 127.33 163.917 127.894 165.86 129.022C167.804 130.151 169.35 131.666 170.5 133.568C171.67 135.47 172.255 137.622 172.255 140.025C172.255 141.593 172.015 143.014 171.534 144.289C171.054 145.563 170.489 146.64 169.842 147.517C169.215 148.395 168.64 149.043 168.117 149.461C170.437 152.032 171.597 155.051 171.597 158.521L171.66 171.687C171.66 171.896 171.555 172 171.346 172H164.074C163.906 172 163.823 171.937 163.823 171.812V158.521C163.823 156.974 163.279 155.637 162.193 154.508C161.106 153.379 159.769 152.815 158.18 152.815H153.948L153.886 171.687C153.886 171.896 153.802 172 153.635 172ZM159.466 135.01H153.948V145.104H159.466C160.782 145.104 161.952 144.613 162.976 143.63C164.021 142.648 164.544 141.446 164.544 140.025C164.544 138.667 164.042 137.497 163.039 136.514C162.036 135.511 160.845 135.01 159.466 135.01Z" fill="white"/>
<g clip-path="url(#clip0_2_1041)">
<path d="M95.3768 0C98.32 1.86766 100.093 4.38754 100.478 7.83236C100.69 7.77745 101.058 7.34448 101.584 6.53346C102.155 8.01934 102.414 9.50412 102.361 11.1291C102.65 10.7273 102.94 10.3244 103.326 9.78905C103.683 10.5415 104.005 11.2493 104.359 11.9416C104.457 12.1331 104.623 12.3813 104.803 12.4269C108.639 13.4019 110.596 16.1066 111.462 19.7439C112.532 24.2406 111.862 28.5357 109.803 32.6528C109.033 34.1932 108.363 35.7826 107.641 37.3464C107.479 37.6948 107.515 37.9775 107.713 38.3259C108.039 38.8991 108.265 39.5302 108.552 40.1791C110.136 39.7573 111.728 39.3365 113.319 38.9114C118.567 37.5089 123.815 36.1043 129.062 34.7019C129.858 34.4893 130.104 34.5895 130.507 35.3207C131.581 37.2685 132.029 39.3688 132 41.5793C131.991 42.2404 131.772 42.4953 131.109 42.6656C123.603 44.5933 116.101 46.5367 108.583 48.421C107.677 48.6481 107.115 49.0944 106.724 49.9414C107.423 50.2943 108.131 50.6449 108.834 51.0066C115.85 54.6217 121.984 59.3888 127.318 65.1932C129.025 67.0508 128.984 69.4661 127.256 71.4896C125.752 73.2493 123.212 73.6233 121.263 72.3488C120.927 72.1296 120.629 71.8369 120.357 71.5363C116.335 67.092 111.778 63.2944 106.663 60.1679C106.539 60.0922 106.41 60.021 106.237 59.9208C106.206 60.0755 106.179 60.1902 106.159 60.307C106.141 60.4139 106.13 60.5218 106.105 60.7122C105.825 60.3794 105.586 60.0956 105.346 59.8117C105.286 59.8507 105.227 59.8896 105.167 59.9286C106.006 62.1747 106.174 64.4586 105.655 66.8906C105.439 66.5533 105.278 66.3029 105.036 65.9245V69.2235C105 69.2302 104.963 69.2368 104.928 69.2446C104.836 69.1177 104.744 68.992 104.588 68.776C104.42 69.987 104.458 71.1546 103.79 72.2108C103.655 71.9671 103.545 71.7667 103.374 71.4562C103.196 72.7996 103.029 74.034 102.187 75.1347C102.087 74.8309 102.015 74.6139 101.911 74.3011C101.523 75.4141 101.177 76.4503 100.24 77.2183C100.208 76.9891 100.186 76.8321 100.165 76.6819C99.6413 77.4309 99.1181 78.1789 98.5949 78.9268L98.4202 78.8467C98.389 78.6508 98.3578 78.456 98.3077 78.1388C97.7645 79.1149 97.2079 79.9263 96.2328 80.435C96.2584 80.1779 96.2762 79.9898 96.3074 79.6792C95.4836 80.7778 94.5397 81.5191 93.2929 81.9821C93.313 81.7528 93.3274 81.5881 93.3352 81.499C92.6094 81.9776 91.8647 82.4674 91.12 82.9582L91.0031 82.8413C91.031 82.6688 91.0577 82.4974 91.0844 82.3293C90.2885 82.8091 89.5015 83.2698 88.7289 83.7529C88.1824 84.0946 87.657 84.0801 87.1171 83.7496C86.3456 83.2776 85.5698 82.8135 84.7861 82.3405C84.8028 82.4774 84.8239 82.6577 84.8707 83.0395C83.998 82.4718 83.2533 81.9865 82.5253 81.5124C82.5342 81.5914 82.5509 81.7428 82.5776 81.9754C81.3119 81.5335 80.3746 80.7655 79.5108 79.6269C79.5687 79.9686 79.5976 80.1389 79.6488 80.4439C78.6336 79.9196 78.0815 79.0982 77.5282 78.0921C77.4982 78.426 77.4815 78.6141 77.4559 78.9068C76.6199 78.3113 76.1735 77.5088 75.7605 76.565C75.696 76.8143 75.6548 76.9746 75.5924 77.2161C74.7052 76.4459 74.3245 75.4598 73.9628 74.3C73.8459 74.6228 73.7724 74.8264 73.6678 75.1169C72.8307 74.0507 72.667 72.8174 72.4778 71.4829C72.3186 71.7756 72.2151 71.9637 72.0771 72.2164C71.4014 71.1724 71.4169 70.0159 71.29 68.7961C71.1286 68.9908 71.0318 69.1077 70.8292 69.3526V66.1237L70.7324 66.0825C70.5787 66.3185 70.4262 66.5544 70.2036 66.8961C69.6826 64.4564 69.8407 62.1702 70.6934 59.9208C70.6444 59.893 70.5954 59.8652 70.5465 59.8373C70.326 60.1278 70.1056 60.4183 69.8852 60.7099C69.8396 60.6843 69.7939 60.6587 69.7483 60.6343V59.3554C69.4956 59.4934 69.3231 59.5825 69.1572 59.6804C63.7561 62.8815 58.9094 66.7704 54.7517 71.4762C53.2311 73.197 50.4515 73.6266 48.5636 72.2531C46.1091 70.4667 45.7573 67.2913 47.8022 65.0763C53.7365 58.6508 60.6259 53.5254 68.5684 49.8368C68.653 49.7979 68.7376 49.76 68.8177 49.7144C68.8466 49.6977 68.8645 49.6609 68.9157 49.5986C68.7286 49.3026 68.535 48.9931 68.3992 48.7783C67.837 48.7004 67.3439 48.6804 66.8763 48.5613C59.26 46.6168 51.646 44.6601 44.0319 42.7068C43.177 42.4831 43 42.2682 43 41.3834C43 39.2697 43.4486 37.263 44.4482 35.3909C44.879 34.585 45.1295 34.4804 46.02 34.7186C52.8627 36.5484 59.7042 38.3782 66.5468 40.208C66.7784 40.2692 67.0099 40.326 67.2014 40.375C67.5843 39.5614 67.965 38.7856 68.3068 37.9942C68.368 37.854 68.3056 37.6303 68.24 37.4689C67.4507 35.5289 66.6826 33.58 65.8433 31.6611C64.4263 28.4211 63.7105 25.072 64.1357 21.5304C64.4485 18.9248 65.2845 16.5485 67.2459 14.6897C68.3891 13.6056 69.7505 12.9111 71.2633 12.5171C71.644 12.418 71.7988 12.2856 71.8166 11.8626C71.919 9.38169 73.129 7.59194 75.3108 6.4433C77.2388 5.42822 79.3316 5.06315 81.4722 4.8962C83.949 4.70253 86.428 4.52556 88.9048 4.32855C89.31 4.29628 89.7107 4.20278 90.1104 4.12598C92.526 3.6663 94.4829 2.60114 95.3757 0.00111302L95.3768 0ZM78.4477 52.4702C78.4811 52.5281 78.5145 52.586 78.5468 52.645C79.4696 52.4791 80.3946 52.3255 81.3141 52.143C82.5119 51.9048 83.7063 51.6499 84.8996 51.3884C85.4006 51.2793 85.9015 51.1491 86.1508 50.7506C85.7156 50.5703 85.1913 50.4935 84.8996 50.1919C84.5935 49.8746 84.51 49.3415 84.3297 48.903C84.2907 48.903 84.2518 48.9019 84.2128 48.9008V50.8152C84.1538 50.8374 84.0948 50.8586 84.0369 50.8808C83.8611 50.4991 83.615 50.1318 83.5293 49.73C83.4458 49.3426 83.4692 48.9097 83.546 48.5156C84.0069 46.1705 84.9742 44.0402 86.3623 42.0991C86.4692 41.9488 86.6006 41.8152 86.7286 41.6817C86.9501 41.4502 87.1994 41.3823 87.4633 41.6093C87.785 41.8865 88.0677 41.8297 88.4172 41.6182C88.5775 41.5214 88.9037 41.5726 89.0863 41.6761C89.2989 41.7974 89.4558 42.0367 89.6028 42.2471C90.8039 43.9678 91.6677 45.8488 92.1753 47.8823C92.3167 48.4489 92.3467 49.0555 92.3401 49.642C92.3345 50.1262 92.1341 50.5692 91.602 50.8808C91.7445 50.1462 91.8914 49.4795 91.5152 48.8963C91.3404 49.3337 91.2681 49.868 90.9653 50.1752C90.6614 50.4824 90.1282 50.5636 89.5683 50.7962C90.0258 51.001 90.4321 51.2604 90.8751 51.3683C92.2599 51.7022 93.6558 51.9961 95.0528 52.2721C95.8087 52.4213 96.5768 52.5036 97.4684 52.6349C97.0276 51.5375 96.7371 50.567 97.2603 49.4684C96.205 49.6754 95.8053 50.3711 95.4903 51.2136C95.1508 49.6398 95.8744 48.3153 97.3571 47.672C98.3823 47.2279 99.4031 46.7715 100.472 46.2996C100.124 46.8951 99.7615 47.515 99.3986 48.1361C99.422 48.1739 99.4454 48.2129 99.4688 48.2507C100.264 47.7443 101.057 47.2379 101.998 46.638C101.617 47.4182 101.29 48.0905 100.962 48.7627C100.982 48.795 101.002 48.8284 101.022 48.8607C101.777 48.3632 102.532 47.8656 103.38 47.3069C103.05 48.1005 102.744 48.834 102.438 49.5675C102.465 49.6031 102.494 49.6387 102.522 49.6743C103.304 49.0811 104.085 48.4878 104.983 47.8044C104.615 48.6748 104.284 49.4562 103.962 50.2186C107.177 48.903 108.989 42.0568 106.662 39.6983C106.355 40.5564 106.042 41.3823 105.766 42.2204C105.646 42.5843 105.9 42.67 106.169 42.5454C106.413 42.433 106.613 42.2237 106.891 42.0134C106.731 42.7646 106.498 43.369 105.736 43.5727C105.248 43.7029 104.918 43.5048 104.865 42.9995C104.825 42.6166 104.873 42.2237 104.882 41.8353C104.911 40.6699 105.013 39.5001 104.956 38.3393C104.816 35.5589 103.543 33.3507 101.354 31.6633C101.102 31.4686 101.035 31.2871 101.117 31.0089C101.52 29.661 101.869 28.2942 102.344 26.973C102.671 26.0615 103.173 25.2134 103.673 24.1794C102.888 24.6056 102.233 24.9618 101.537 25.3391C101.821 23.7241 102.71 22.4464 103.644 21.1898C103.608 21.1542 103.571 21.1185 103.534 21.0829C102.855 21.4424 102.176 21.8019 101.329 22.2505C101.825 20.946 102.271 19.7762 102.716 18.6053C102.687 18.5853 102.659 18.5641 102.63 18.5441C101.743 19.4189 100.856 20.2927 99.9675 21.1675C100.043 20.0712 100.116 19.0416 100.187 18.0121C100.12 17.9987 100.052 17.9865 99.9853 17.9731C99.3831 19.2976 98.8042 20.6377 97.7701 21.6773C97.7077 21.6539 97.6454 21.6294 97.5831 21.606V19.6927C96.963 20.8525 96.2873 21.9043 95.1864 22.7291C95.2343 22.2249 95.3055 21.8086 95.3055 21.3912C95.3055 20.9672 95.2332 20.5442 95.192 20.1202C94.5797 21.35 94.1334 22.6189 92.8877 23.3835C92.8877 22.8549 92.8989 22.4119 92.8844 21.9689C92.8699 21.5448 92.8298 21.1219 92.7998 20.6978C91.6944 22.797 91.0477 23.6963 90.3987 23.9835C90.3542 23.0674 90.3074 22.1136 90.2607 21.1608C89.8866 21.6984 89.703 22.2471 89.4124 22.7324C88.3505 24.5088 87.49 24.5077 86.4291 22.7313C86.1442 22.2538 85.9627 21.7151 85.7345 21.2042H85.5909V24.156C84.4165 23.24 83.8355 22.0579 83.2911 20.8358V23.6039C82.0711 22.7235 81.4433 21.4001 80.8288 20.0667C80.782 20.0856 80.7342 20.1046 80.6874 20.1235V22.758C79.3026 21.6328 78.5145 20.2025 78.018 18.5786C77.9668 18.5953 77.9156 18.612 77.8644 18.6287C77.9468 19.626 78.0303 20.6232 78.1216 21.7207C76.9561 20.6722 76.316 19.4045 75.8373 18.0321C75.7761 18.0455 75.7149 18.0588 75.6537 18.0722C75.7305 19.0884 75.8084 20.1035 75.8908 21.1842C74.9746 20.2804 74.0796 19.3967 73.1847 18.5129C73.1624 18.5397 73.1412 18.5664 73.119 18.592L74.4381 22.0167C74.3913 22.0457 74.3457 22.0746 74.2989 22.1036C73.6266 21.4513 72.8552 20.9961 71.9223 20.8214C72.9832 22.1815 73.965 23.5583 74.3101 25.3414C73.5988 24.9551 72.9453 24.6012 72.2919 24.2472C72.2819 24.471 72.3387 24.6023 72.4088 24.7247C73.4396 26.5234 74.1642 28.4367 74.6229 30.4602C74.772 31.1168 74.8054 31.6366 74.093 31.9561C73.9483 32.0206 73.8437 32.1753 73.7223 32.2889C71.6808 34.2155 70.7991 36.6241 70.8247 39.3855C70.8348 40.4585 70.9906 41.5292 71.0029 42.6021C71.0062 42.9227 70.8003 43.4703 70.601 43.5159C70.2704 43.5905 69.7761 43.4403 69.5168 43.2032C69.2207 42.9316 69.106 42.4619 68.9123 42.079C68.9635 42.0568 69.0147 42.0345 69.0659 42.0122C69.0982 42.0545 69.1227 42.1146 69.165 42.138C69.4389 42.2849 69.7183 42.4252 69.9954 42.5665C69.9721 42.2983 69.952 42.0289 69.9231 41.7618C69.9153 41.6895 69.8774 41.6216 69.8518 41.5514C69.6281 40.9415 69.4032 40.3327 69.1617 39.676C66.9509 42.3818 68.8478 49.3538 71.8711 50.1885C71.5706 49.474 71.2522 48.7193 70.886 47.8501C71.8121 48.5357 72.5824 49.1067 73.3527 49.6765C73.3706 49.6409 73.3873 49.6053 73.4051 49.5708C73.109 48.8507 72.814 48.1294 72.4889 47.3369C73.3416 47.8923 74.0685 48.3654 74.7965 48.8395C74.8143 48.8006 74.831 48.7616 74.8488 48.7238C74.5305 48.0515 74.2121 47.3781 73.8604 46.6335C74.7798 47.2268 75.5724 47.7388 76.3661 48.2507C76.3973 48.2073 76.4295 48.165 76.4607 48.1216C76.2615 47.82 76.0355 47.5328 75.8707 47.2134C75.6971 46.8773 75.5813 46.5111 75.4577 46.1994C76.3538 46.6747 77.2344 47.1266 78.0993 47.6063C78.5178 47.8389 78.9509 48.0771 79.3004 48.3966C80.1008 49.1311 80.4703 50.0594 80.3479 51.1702C79.9972 50.4156 79.5553 49.7745 78.5635 49.4606C79.1134 50.5681 78.8139 51.5219 78.4477 52.4713V52.4702ZM75.2373 14.3669C75.4344 13.1838 75.5201 12.1041 76.4106 11.2115C76.3127 11.8415 76.2025 12.3446 76.1635 12.8521C76.1245 13.3663 76.1546 13.885 76.1546 14.4025C76.3427 14.1766 76.3984 13.9473 76.4518 13.718C76.9138 11.7357 78.0036 10.1975 79.7768 9.19692C80.5472 8.76285 81.3609 8.33767 82.2091 8.12508C85.1156 7.39494 88.0466 6.76163 90.9686 6.09159C90.9898 6.14946 91.0098 6.20734 91.031 6.26522C90.343 6.55238 89.6696 6.87961 88.966 7.12002C87.0725 7.7678 85.1534 8.34546 83.2688 9.0155C81.6848 9.57869 80.2032 10.3355 79.1212 11.7001C78.2741 12.7675 77.8399 14.3291 78.1216 15.3998C79.5598 12.3446 80.2956 11.3117 81.1906 11.088C80.113 13.3864 79.8292 14.9858 80.2755 16.5741C80.3067 16.298 80.3334 16.1444 80.3401 15.9897C80.447 13.4131 81.5713 11.4575 83.9412 10.3623C85.7056 9.54641 87.5312 8.86524 89.3211 8.10505C90.9386 7.41831 92.5516 6.71822 94.1523 5.99253C94.4974 5.8367 94.7823 5.54954 95.1942 5.25125C94.7334 6.09715 94.159 6.7505 93.1204 7.32036C91.5464 8.18407 89.9211 8.95651 88.3193 9.76902C87.1794 10.3467 85.9939 10.8509 84.9097 11.5198C82.8136 12.8154 81.8028 15.3531 82.4763 17.5991C82.6956 15.8784 83.2677 14.4526 84.4755 13.3318C83.6317 14.9179 83.6963 16.5173 84.3163 18.1323C84.3609 18.0622 84.3642 17.9909 84.3598 17.9208C84.195 14.9335 85.572 12.8476 88.1501 11.4809C89.1486 10.9511 90.1772 10.4791 91.1824 9.95935C93.4276 8.79958 95.8131 7.82011 97.1768 5.26795C97.1334 6.37875 96.7482 7.18124 96.0903 7.7934C95.3211 8.50908 94.4963 9.18357 93.618 9.759C92.2855 10.6316 90.8517 11.3506 89.5271 12.2344C88.69 12.7931 87.8852 13.4554 87.2239 14.21C86.4191 15.1271 86.2878 16.298 86.4725 17.4945C86.7252 16.2602 87.2417 15.1961 88.2814 14.3903C88.1913 15.1138 88.11 15.7749 88.0276 16.4349L88.228 16.485C88.8124 14.8099 89.9145 13.5722 91.4161 12.6885C91.9738 12.3601 92.5616 12.0797 93.1449 11.7958C94.6209 11.0757 96.0046 10.2231 97.1723 9.05446C97.4951 8.73168 97.7935 8.38219 98.2064 7.93253C97.9426 9.03776 97.5096 9.90258 96.7994 10.5659C95.8666 11.4363 94.8313 12.1954 93.8818 13.048C93.0035 13.836 92.1141 14.6285 91.3538 15.5245C90.9352 16.0175 90.7727 16.7288 90.4944 17.342C90.5523 17.371 90.6091 17.401 90.667 17.43C91.317 16.0776 92.4013 15.1338 93.5935 14.2968C94.1701 13.8928 94.7823 13.5377 95.3478 13.1192C96.2985 12.4147 97.2669 11.7235 98.1463 10.9377C98.8855 10.2766 99.2862 9.37835 99.3029 8.3655C99.3452 5.72763 98.3445 3.57058 96.2684 1.92665C96.117 1.80755 95.9434 1.7174 95.7352 1.58495C95.0595 3.6485 93.4332 4.45767 91.5853 4.98524C91.2469 5.08207 90.9041 5.18447 90.5568 5.2212C88.0321 5.4861 85.5085 5.76102 82.9794 5.97917C80.811 6.16616 78.657 6.38765 76.621 7.22242C74.8344 7.95479 73.4796 9.11345 72.9887 11.069C72.7772 11.9138 72.8585 12.743 73.1891 13.5789C73.2325 13.5266 73.2526 13.5143 73.2537 13.4999C73.2693 13.3719 73.2871 13.245 73.2949 13.1159C73.4251 10.8119 74.644 9.24812 76.6444 8.2375C78.1015 7.50068 79.6744 7.14451 81.2841 6.94861C82.0677 6.85401 82.857 6.80726 83.644 6.73937C83.6484 6.78611 83.654 6.83175 83.6585 6.87849C83.2132 6.99314 82.759 7.08329 82.3227 7.22798C80.7631 7.74888 79.1401 8.14623 77.6707 8.85857C75.677 9.82467 74.7264 12.1275 75.2407 14.3658L75.2373 14.3669ZM86.5772 69.8768C87.0703 69.219 87.4844 68.667 87.9263 68.0771C88.3816 68.687 88.7924 69.2391 89.2633 69.8701C89.4837 69.2758 89.6595 68.8027 89.9 68.1561C90.4655 68.7994 90.9397 69.3381 91.4963 69.9714C91.6221 69.3415 91.7178 68.864 91.8336 68.2841C92.3957 68.7349 92.8766 69.1211 93.4154 69.5529C93.4443 69.0109 93.4688 68.5434 93.5 67.9502C94.0577 68.4032 94.5163 68.7749 95.0373 69.1979C94.9849 68.559 94.9415 68.0203 94.8881 67.3569C95.4859 67.7187 95.969 68.0114 96.5411 68.3587C96.4142 67.7576 96.3052 67.2445 96.1738 66.6212C96.7838 66.8694 97.3037 67.0809 97.9014 67.3235C97.8168 66.737 97.7411 66.2072 97.6543 65.6006C98.1352 65.8232 98.5237 66.0035 98.9946 66.2216C98.8209 65.0752 98.7196 64.0435 99.0057 62.9393C99.2896 63.2499 99.5044 63.4847 99.8261 63.8364C99.7805 63.4413 99.7593 63.222 99.7293 63.0061C99.5066 61.4245 99.599 59.8685 100.033 58.3236C100.232 57.6135 100.318 56.8689 100.439 56.1376C100.496 55.7915 100.516 55.4398 100.549 55.1393C99.8784 55.8338 99.1805 56.4693 98.5949 57.1961C98.251 57.6235 97.9404 58.1756 97.868 58.7054C97.6654 60.1991 96.6603 61.0806 95.5293 61.7618C95.0751 62.0356 94.6432 62.3628 94.1801 62.6288C93.8896 62.7958 93.6046 62.9983 93.3775 63.241C93.0692 63.5726 92.7686 63.7541 92.3033 63.576C92.1675 63.5237 91.9193 63.5515 91.8213 63.645C91.3093 64.1292 90.795 64.4809 90.1493 63.9344C89.182 64.9695 89.1898 64.9595 88.1345 64.2327C88.0265 64.1581 87.7204 64.2338 87.5957 64.3429C86.9312 64.9227 86.5972 64.9216 86.0139 64.2761C85.9182 64.1703 85.8225 64.0635 85.7067 63.9355C85.0577 64.4219 84.5568 64.1637 84.0692 63.6873C83.9601 63.5804 83.6974 63.5248 83.556 63.5782C83.0896 63.7552 82.769 63.5949 82.4841 63.2421C82.3471 63.0718 82.2214 62.8726 82.0455 62.7546C81.1483 62.1524 80.1531 61.7317 79.3126 60.9993C78.5824 60.3638 78.2006 59.6515 78.0158 58.7555C77.9535 58.4561 77.8845 58.1188 77.7019 57.8907C76.926 56.9179 76.1067 55.9807 75.2006 54.9089C75.4255 56.1644 75.5535 57.3208 75.8496 58.4338C76.277 60.0466 76.3349 61.6516 76.0833 63.2844C76.0633 63.4124 76.0811 63.5459 76.0811 63.7708C76.3694 63.4613 76.5876 63.2276 76.9327 62.857V66.1749C77.3268 65.9979 77.723 65.8187 78.1906 65.6084C78.1037 66.2116 78.0281 66.7437 77.9446 67.3235C78.549 67.0798 79.0778 66.8661 79.6744 66.6246C79.5431 67.2534 79.4384 67.7509 79.3138 68.3442C79.9004 67.9958 80.3835 67.7086 80.9601 67.3658C80.9056 68.0359 80.8622 68.5746 80.8121 69.1912C81.3564 68.756 81.8184 68.3876 82.2804 68.0181C82.326 68.0481 82.3716 68.0771 82.4184 68.1071V69.5707C82.9783 69.1188 83.4603 68.7282 84.0169 68.2785C84.1327 68.8662 84.2251 69.3415 84.3186 69.8167C84.3731 69.849 84.4288 69.8824 84.4833 69.9147C84.9687 69.3726 85.454 68.8306 85.9894 68.2318C86.1987 68.8183 86.3657 69.2847 86.5761 69.8735L86.5772 69.8768ZM67.5131 47.2C67.4919 46.9262 67.4908 46.7348 67.4619 46.5478C67.3238 45.6518 67.1335 44.7603 67.0556 43.8587C67.0166 43.4091 66.8864 43.2355 66.4478 43.1242C59.8545 41.4468 53.2634 39.7584 46.6801 38.0421C45.8597 37.8284 45.1462 37.7271 44.5473 38.534C44.7243 37.8562 44.9625 37.244 45.1952 36.6308C45.38 36.1433 45.6838 36.0264 46.2015 36.1689C51.7061 37.6848 57.2163 39.1796 62.7242 40.6799C64.1491 41.0684 65.5762 41.4513 67.0633 41.8531C67.0979 41.5615 67.1257 41.3322 67.1546 41.0918C66.9943 41.0361 66.8763 40.9849 66.7528 40.9526C59.7866 39.0894 52.8193 37.2318 45.8553 35.3564C45.43 35.2417 45.2141 35.3319 45.0193 35.7136C44.1076 37.4989 43.6724 39.3922 43.6568 41.3923C43.6534 41.8063 43.8104 41.9666 44.2056 42.0679C50.7632 43.7385 57.3176 45.4237 63.8719 47.1066C65.0574 47.4104 66.2396 47.7254 67.4285 48.0148C67.5732 48.0504 67.7479 47.958 67.9094 47.9246C67.5509 47.7321 67.2604 47.6898 66.9787 47.6185C59.5795 45.722 52.1803 43.822 44.7822 41.9221C44.0453 41.7329 43.9863 41.616 44.1866 40.9649C44.495 41.124 44.7978 41.3556 45.1373 41.4446C47.8801 42.1692 50.6297 42.867 53.377 43.5727C58.0445 44.7714 62.712 45.969 67.5153 47.2012L67.5131 47.2ZM130.822 40.9771C131.003 41.6271 130.949 41.7351 130.257 41.9132C128.066 42.4753 125.874 43.0362 123.684 43.5983C118.638 44.8939 113.593 46.1883 108.548 47.4883C108.347 47.5406 108.159 47.643 107.966 47.7209C107.985 47.7688 108.003 47.8156 108.021 47.8634C108.179 47.8367 108.341 47.82 108.495 47.7799C115.93 45.8733 123.363 43.9623 130.799 42.0612C131.183 41.9633 131.352 41.8041 131.347 41.3845C131.321 39.4434 130.914 37.6013 130.054 35.8539C129.82 35.3786 129.587 35.2261 129.03 35.3764C122.392 37.175 115.747 38.9436 109.103 40.7222C108.95 40.7634 108.803 40.8302 108.636 40.8914C108.688 41.1496 108.73 41.3622 108.778 41.6015C108.945 41.5648 109.069 41.5437 109.19 41.5103C112.965 40.4852 116.738 39.459 120.513 38.4328C123.267 37.6837 126.02 36.9268 128.78 36.1967C129.028 36.131 129.493 36.1488 129.568 36.2857C129.943 36.9747 130.221 37.7149 130.534 38.4372C130.484 38.4717 130.434 38.5073 130.384 38.5418C129.86 37.785 129.193 37.7527 128.403 38.0209C127.685 38.2647 126.934 38.4072 126.198 38.5964C120.579 40.0411 114.96 41.488 109.338 42.9238C108.984 43.014 108.848 43.1464 108.807 43.5415C108.699 44.5889 108.503 45.6273 108.346 46.6691C108.334 46.7515 108.345 46.8361 108.345 46.9663C108.637 46.8951 108.886 46.8372 109.134 46.7726C116.029 45.0018 122.925 43.2332 129.818 41.4502C130.177 41.3578 130.499 41.1296 130.823 40.9727L130.822 40.9771ZM71.7798 53.7736C71.7041 53.7057 71.6284 53.6389 71.5516 53.571C69.8385 54.526 68.0919 55.4253 66.4199 56.4471C61.2137 59.6281 56.6419 63.6016 52.3484 67.909C52.0456 68.2128 51.8653 68.6336 51.5914 68.9708C51.4 69.2068 51.1573 69.4038 50.9191 69.5952C50.7655 69.7188 50.5428 69.7677 50.4137 69.908C49.9317 70.43 49.5165 71.0744 48.6048 70.5647C49.8259 71.7723 51.7339 71.6944 52.9462 70.4712C53.22 70.1951 53.4693 69.8946 53.7332 69.6075C58.3517 64.5833 63.6281 60.3905 69.5747 57.0392C69.8452 56.8867 70.1713 56.7287 70.3183 56.4816C70.8414 55.6 71.2967 54.6796 71.7787 53.7747L71.7798 53.7736ZM104.47 54.1186C104.401 54.1832 104.331 54.2477 104.262 54.3123C104.743 55.1125 105.218 55.915 105.707 56.7108C105.881 56.9936 106.025 57.3609 106.287 57.5145C112.181 60.9837 117.407 65.2611 121.956 70.3688C122.453 70.9275 123.087 71.2625 123.82 71.4006C124.796 71.5842 125.899 71.228 126.232 70.7428C125.893 70.6559 125.459 70.6259 125.113 70.4367C124.658 70.1874 124.267 69.8167 123.857 69.4895C123.715 69.376 123.522 69.2524 123.479 69.0988C123.264 68.3308 122.643 67.8934 122.123 67.3814C117.865 63.1742 113.337 59.3031 108.187 56.21C106.969 55.4787 105.71 54.8165 104.47 54.122V54.1186ZM108.125 17.3465C107.816 19.5648 107.034 21.5827 105.669 23.3847C106.004 23.1977 106.303 22.9873 106.585 22.7569C107.626 21.9077 108.474 20.8937 109.12 19.7083C108.737 22.3596 107.191 24.5088 106.035 26.8239C106.092 26.8684 106.15 26.9129 106.207 26.9575C107.48 25.8433 108.753 24.7292 109.984 23.6518C109.359 25.7632 108.14 27.6242 106.443 29.1958C106.492 29.2514 106.541 29.3082 106.59 29.3638C107.582 28.7172 108.572 28.0705 109.564 27.4227C109.595 27.4294 109.625 27.4361 109.656 27.4427C108.652 29.0589 107.647 30.675 106.643 32.29C106.673 32.3122 106.703 32.3345 106.733 32.3567C107.193 31.9728 107.652 31.5888 108.209 31.1235C107.702 32.8264 107.242 34.368 106.781 35.9084L107.005 35.993C107.682 34.6195 108.399 33.2639 109.029 31.8681C110.663 28.2486 111.376 24.4932 110.535 20.5409C110.103 18.5118 109.346 16.6364 107.81 15.1661C106.856 14.2534 105.723 13.6969 104.302 13.4687C105.276 14.9023 105.158 16.3348 104.673 17.7984C104.746 17.8273 104.82 17.8563 104.893 17.8841C105.412 17.1172 105.93 16.3492 106.457 15.569C106.467 17.0749 106.112 18.4918 105.516 19.8619C105.572 19.8975 105.63 19.9332 105.687 19.9688C106.485 19.1084 107.283 18.2492 108.123 17.3443L108.125 17.3465ZM69.253 32.3701C69.2852 32.3456 69.3164 32.3211 69.3487 32.2966C68.3524 30.6972 67.355 29.0967 66.3587 27.4973C66.411 27.4606 66.4634 27.4238 66.5157 27.3871C66.8073 27.6275 67.089 27.8824 67.3928 28.105C67.7068 28.3343 68.034 28.548 68.3702 28.7416C68.6841 28.9231 69.0181 29.0689 69.3431 29.2303C67.1635 26.943 65.8823 24.7548 65.9825 23.3479C67.237 24.3686 68.4893 25.387 69.7917 26.4466C68.6596 24.2406 67.1903 22.2282 66.8307 19.6705C68.5973 22.1358 69.5413 23.1186 70.3238 23.3101C68.9368 21.5504 68.1687 19.5547 67.8626 17.3621C68.6997 18.2569 69.5056 19.1184 70.3127 19.9788C70.3672 19.9398 70.4207 19.9009 70.4752 19.8619C69.8407 18.4829 69.5357 17.0382 69.5535 15.5111C70.0188 16.347 70.3895 17.2485 71.3713 17.9052C70.7724 16.3014 70.7557 14.8767 71.673 13.4554C69.3342 13.8906 67.7557 15.1627 66.6993 17.1039C65.2567 19.754 64.9216 22.6211 65.1877 25.574C65.4537 28.5224 66.5624 31.2126 67.8715 33.8282C68.2322 34.5494 68.6396 35.2484 69.0248 35.9574L69.2006 35.8873C68.7398 34.3457 68.2789 32.8031 67.7691 31.0979C68.3468 31.5932 68.7999 31.9817 69.2541 32.3701H69.253ZM87.6814 57.9074C87.2796 58.0699 86.9111 58.2413 86.5271 58.3681C86.1408 58.495 85.7334 58.5574 85.3505 58.692C85.2303 58.7343 85.0833 58.9102 85.0766 59.0326C85.0499 59.4934 85.0477 59.9598 85.0978 60.4183C85.1167 60.5875 85.2915 60.8647 85.4173 60.8769C86.0562 60.9415 86.7141 61.0127 87.3386 60.9159C87.5813 60.878 87.7571 60.4039 87.9608 60.1301C87.9519 60.1212 87.9965 60.1423 88.0009 60.1712C88.1011 60.7478 88.4083 61.0772 89.025 61.016C89.5349 60.9659 90.0436 60.9003 90.5512 60.8279C90.6046 60.8201 90.6814 60.7222 90.6848 60.6632C90.7171 60.0766 90.7493 59.4878 90.7449 58.9013C90.7449 58.8223 90.5479 58.7154 90.4232 58.672C89.7263 58.426 89.0239 58.1956 88.3226 57.9619C88.2736 57.9452 88.218 57.9508 88.1668 57.9463C88.0811 58.0821 88.0009 58.2068 87.9085 58.3537C87.8206 58.18 87.7549 58.052 87.6826 57.9085L87.6814 57.9074ZM47.3837 68.0771C47.889 67.3636 48.3499 66.5377 48.9733 65.8599C54.8152 59.5023 61.6556 54.5082 69.5157 50.9198C69.6403 50.863 69.755 50.7818 69.873 50.7128C69.627 50.2553 69.3487 50.5035 69.0982 50.6181C61.0912 54.3011 54.1695 59.4611 48.2408 65.9679C47.6742 66.5901 47.3603 67.3224 47.3837 68.0771ZM105.701 50.9944C105.887 51.089 106.062 51.1836 106.241 51.2682C113.533 54.7163 119.932 59.391 125.475 65.2444C126.311 66.127 127.202 66.9741 127.552 68.2084C127.644 67.308 127.309 66.5667 126.722 65.9222C123.704 62.6088 120.391 59.6236 116.766 56.9858C113.519 54.6228 110.083 52.5793 106.451 50.8664C106.196 50.7461 105.917 50.5336 105.703 50.9932L105.701 50.9944ZM101.038 9.63657C100.285 11.6278 98.7953 12.9756 97.159 14.1922C96.5345 14.6563 95.871 15.0681 95.2443 15.5289C94.4161 16.1377 94.0376 16.967 94.11 18.0054C94.9515 16.8401 96.1961 16.1889 97.3048 15.3664C98.0461 14.8166 98.7897 14.2489 99.4365 13.5945C100.504 12.5149 101.042 11.1737 101.039 9.63657H101.038ZM70.7324 57.402C70.6956 57.3519 70.6578 57.303 70.6199 57.2529C70.4619 57.333 70.3016 57.4087 70.1468 57.4933C64.5621 60.5541 59.584 64.3974 55.1625 68.9819C53.9981 70.1896 53.0564 71.7322 51.1907 72.0706C52.2215 72.2231 53.0096 71.7923 53.6653 71.0767C58.5109 65.7931 63.9498 61.2564 70.2715 57.8205C70.4485 57.7248 70.5787 57.5423 70.7312 57.4009L70.7324 57.402ZM123.786 72.0739C122.677 71.7556 122.269 71.5163 121.444 70.6671C121.043 70.2552 120.64 69.8468 120.246 69.4283C116.039 64.9561 111.29 61.1696 105.96 58.1155C105.809 58.0298 105.65 57.9608 105.495 57.884C105.463 57.9307 105.431 57.9775 105.399 58.0242C105.657 58.2335 105.893 58.4783 106.176 58.6464C109.37 60.5419 112.447 62.6154 115.199 65.112C117.324 67.0397 119.324 69.1055 121.368 71.1223C122.047 71.7923 122.802 72.2186 123.785 72.0739H123.786ZM87.8952 75.9128C88.8403 74.6506 88.8002 71.9726 87.8618 70.785C87.284 72.4902 86.802 74.1642 87.8952 75.9128ZM86.0139 51.2771C86.0417 51.3394 86.0685 51.4017 86.0963 51.4629H89.8132C89.5727 51.1569 89.2599 51.0366 89.113 50.8107C88.8258 50.3688 88.6421 49.8613 88.3916 49.3938C88.267 49.1623 88.0889 48.9609 87.9341 48.7449C87.7761 48.952 87.5579 49.1367 87.4711 49.3704C87.1805 50.1485 86.9568 50.9587 86.015 51.2759L86.0139 51.2771ZM91.6465 74.7174C91.9872 73.0578 91.2837 71.6632 90.3508 70.2174V75.3752C90.6914 74.7118 90.9653 74.1787 91.2792 73.5665C91.4139 73.9894 91.5308 74.3534 91.6465 74.7185V74.7174ZM85.4941 75.3407V70.2018C84.5835 71.6365 83.8944 73.0089 84.1805 74.6829C84.3152 74.3311 84.4499 73.9794 84.5868 73.6244C84.8974 74.2132 85.1768 74.7396 85.4941 75.3407ZM85.6277 61.853C85.8792 62.5665 86.0729 63.2298 86.3501 63.8565C86.5249 64.2527 86.8532 64.2905 87.2039 63.9845C87.7371 63.517 87.9352 62.3695 87.5891 61.7362C86.9768 61.7729 86.3768 61.8096 85.6288 61.8541L85.6277 61.853ZM90.1694 61.8475C89.448 61.8063 88.8302 61.7718 88.1423 61.7328C88.1423 62.2737 88.0332 62.8347 88.179 63.3211C88.2814 63.6628 88.7033 63.9455 89.0451 64.1481C89.1119 64.1882 89.556 63.7841 89.6696 63.5181C89.89 63.0028 89.9991 62.4407 90.1694 61.8475ZM87.0469 78.3336C87.057 79.5668 87.1872 80.7477 87.9297 81.8596C88.6488 80.7266 88.8169 79.5579 88.8859 78.2156C88.5286 78.7599 88.2558 79.1761 87.9119 79.7015C87.5679 79.1572 87.3085 78.7465 87.0481 78.3347L87.0469 78.3336ZM94.3838 74.5259C94.592 72.9577 93.7293 70.9153 92.8209 70.4734C92.9757 71.8747 93.1349 73.3138 93.294 74.7541C93.3185 74.763 93.343 74.7719 93.3686 74.7797C93.4911 74.2466 93.6135 73.7134 93.7705 73.0322C94.0131 73.6221 94.199 74.074 94.3849 74.5259H94.3838ZM81.4243 74.6072C81.657 74.0507 81.8462 73.5999 82.0355 73.148C82.1779 73.4296 82.2069 73.6967 82.2681 73.9561C82.3293 74.2154 82.424 74.4669 82.5364 74.822C82.7134 73.2593 82.8759 71.8369 83.034 70.4478C82.0366 71.0533 81.1883 73.1235 81.4243 74.6072ZM100.197 51.3361C99.7805 53.0178 98.527 53.2794 97.1155 53.295C97.9293 53.709 98.7408 53.6233 99.5601 53.3963C99.5923 53.4408 99.6235 53.4853 99.6558 53.5298C99.3675 53.896 99.0803 54.2633 98.7998 54.6206C100.187 54.5705 100.901 53.0167 100.197 51.3372V51.3361ZM75.6381 51.4151C74.9112 52.9522 75.6837 54.6373 77.0217 54.6006C76.7546 54.2555 76.4752 53.8916 76.1947 53.5287C76.2269 53.4875 76.2592 53.4475 76.2904 53.4063C77.1019 53.6055 77.9078 53.7257 78.7483 53.3217C77.0867 53.0034 76.0496 52.3678 75.637 51.4151H75.6381ZM92.1887 61.2353C91.7568 61.3054 91.3805 61.3021 91.061 61.4356C90.6814 61.5937 90.2618 62.8892 90.3931 63.2866C90.5211 63.6762 90.9853 63.8298 91.2725 63.5348C91.8547 62.9371 92.192 62.2214 92.1887 61.2353ZM83.6251 61.1941C83.6573 62.1981 83.9813 62.9048 84.5301 63.5025C84.8351 63.8353 85.316 63.6973 85.4596 63.2799C85.5675 62.9638 85.169 61.6326 84.864 61.5035C84.5123 61.3544 84.116 61.311 83.6262 61.1952L83.6251 61.1941ZM100.501 16.5418C101.737 15.3353 102.854 14.1822 102.813 12.3824C102.007 13.7091 100.664 14.7353 100.501 16.5418ZM81.9553 60.9303C82.0811 61.6594 82.2392 62.3561 82.7657 62.8826C82.8915 63.0083 83.1854 62.9638 83.4013 62.9983C83.4147 62.8347 83.4614 62.6666 83.4369 62.5097C83.3757 62.1302 83.2655 61.7573 83.2043 61.3778C83.1453 61.0149 83.0206 60.7923 82.592 60.8958C82.4073 60.9403 82.2069 60.9192 81.9553 60.9303ZM93.8606 60.9236C93.6469 60.9236 93.4755 60.9615 93.3285 60.917C92.8265 60.7645 92.6729 61.0082 92.6195 61.4534C92.5783 61.7985 92.4658 62.1335 92.4169 62.4774C92.3924 62.6488 92.4391 62.8314 92.4536 63.0083C92.6707 62.9683 92.969 63.0039 93.0903 62.8737C93.5935 62.3339 93.7916 61.6538 93.8618 60.9236H93.8606ZM92.6484 58.8991C92.2232 58.8723 91.789 58.8456 91.3237 58.8156V60.4851C92.3234 60.6376 92.7753 60.4117 92.6484 58.8979V58.8991ZM93.9208 76.8677C93.1026 78.16 92.2666 80.2547 92.3445 80.819C93.3942 79.9764 94.2313 77.8784 93.9208 76.8677ZM125.413 68.5078C125.425 68.0092 125.024 67.5773 124.53 67.5551C124.002 67.5306 123.564 67.9446 123.563 68.47C123.563 68.9753 123.964 69.3927 124.461 69.4027C124.937 69.4127 125.402 68.9753 125.412 68.5078H125.413ZM51.4311 68.4789C51.43 67.9713 51.0326 67.564 50.5272 67.5539C50.0063 67.5439 49.5799 67.9735 49.5866 68.5022C49.5933 68.9886 50.0319 69.4127 50.5228 69.4049C51.017 69.3971 51.4334 68.973 51.4322 68.4777L51.4311 68.4789ZM84.5267 60.4862V58.8133C84.0559 58.8456 83.6228 58.8746 83.1987 58.9035C83.0273 60.2091 83.3701 60.6142 84.5267 60.4862ZM90.6892 78.2902C90.3898 79.3175 90.1159 80.2547 89.812 81.2987C90.9931 80.4394 91.474 79.3186 91.7679 77.9407C91.4306 78.3692 91.1712 78.6975 90.8328 79.1261C90.7716 78.771 90.7382 78.5762 90.6892 78.2902ZM84.1482 78.0208C84.2729 79.273 85.2069 80.8479 86.034 81.223C85.7523 80.2925 85.4718 79.3654 85.1534 78.3169C85.0889 78.6308 85.051 78.8133 84.9876 79.1194C84.6614 78.6931 84.411 78.3647 84.1482 78.0208ZM82.031 76.9757C81.9843 76.9957 81.9375 77.0169 81.8907 77.0369C81.9954 78.4226 82.3861 79.6703 83.5694 80.5318L83.7787 80.4283C83.1965 79.2774 82.6132 78.1254 82.031 76.9746V76.9757ZM81.3598 70.2886C81.3108 70.2664 81.2618 70.2452 81.2128 70.223C80.2444 70.8329 79.6188 72.3399 79.926 73.4897C80.4269 72.3722 80.8933 71.3293 81.3598 70.2875V70.2886ZM95.9222 73.4964C96.2373 72.3578 95.5549 70.7461 94.4874 70.3231C94.9549 71.3571 95.4213 72.39 95.9222 73.4964ZM97.7957 73.8659C97.4317 75.0168 97.0688 76.1687 96.677 77.4087C97.8502 76.4181 98.0495 75.2116 97.7957 73.8659ZM79.1268 77.294C78.7594 76.1265 78.3943 74.9689 78.0058 73.7346C77.6986 75.2928 78.1505 76.6819 79.1268 77.294ZM95.8209 75.8905C94.9193 76.8254 94.9738 78.111 94.5697 79.2285C95.6862 78.3725 95.5059 77.0403 95.8209 75.8905ZM103.582 56.7231C103.393 57.9897 103.677 59.2296 104.154 59.726C104.3 59.3665 103.726 58.8323 104.475 58.5841C104.176 57.963 103.879 57.343 103.582 56.7231ZM80.0585 75.9528C80.3167 77.0692 80.1731 78.3336 81.2273 79.1606C80.88 78.0765 80.8978 76.8588 80.0585 75.9528ZM72.4121 56.7743C72.3643 56.7543 72.3164 56.7331 72.2685 56.7131C71.9646 57.3464 71.6607 57.9786 71.3646 58.5952C72.1082 58.8156 71.5105 59.3743 71.7698 59.7605C72.3331 58.8044 72.3064 57.7749 72.4121 56.7754V56.7743ZM96.2818 69.5151C96.2139 69.5552 96.1449 69.5952 96.077 69.6364C96.51 70.4267 96.9441 71.2158 97.3771 72.006C97.425 71.9804 97.474 71.9548 97.5218 71.9281C97.474 70.9375 97.1912 70.0671 96.2818 69.5151ZM79.6611 57.7059C80.8132 58.1444 81.9887 57.451 82.2013 56.2222C81.8061 56.5183 81.4332 56.8522 81.0102 57.1004C80.5895 57.3464 80.1186 57.5055 79.6611 57.7059ZM96.166 57.6992C95.7174 57.5011 95.2432 57.3408 94.8224 57.0915C94.3872 56.8333 94.002 56.4894 93.5935 56.1822C93.9931 57.5545 95.0462 58.1723 96.166 57.6992ZM78.3153 72.0851C78.9141 71.2347 79.5297 70.5302 79.6466 69.4639C78.6436 70.0727 78.3609 70.9487 78.3153 72.0851ZM99.245 72.5726C99.1905 72.5659 99.1359 72.5592 99.0814 72.5536L98.7508 75.6267C99.5723 74.6895 99.4732 73.6388 99.245 72.5737V72.5726ZM82.1802 58.2602C83.2855 58.4806 84.1972 57.7014 84.3197 56.6174C84.0703 56.8233 83.713 57.1371 83.3367 57.4265C82.9627 57.7148 82.572 57.9797 82.1802 58.2591V58.2602ZM103.628 61.1585C103.876 62.0723 104.125 62.9861 104.373 63.901C104.733 62.7479 104.535 62.02 103.628 61.1585ZM76.7624 72.5514C76.7067 72.5514 76.65 72.5514 76.5943 72.5525C76.3806 73.6344 76.2548 74.704 77.0919 75.6401C76.9817 74.6105 76.8715 73.581 76.7613 72.5514H76.7624ZM80.4147 61.311C80.3401 60.8457 80.1598 60.3972 80.2288 59.9909C80.329 59.3988 80.0607 59.2062 79.6032 59.0449C79.3928 59.8774 79.7635 60.9014 80.4147 61.3099V61.311ZM95.5159 55.816C96.038 56.9112 97.2213 57.4065 98.0016 56.8734C97.1823 56.525 96.3085 56.1532 95.5159 55.816ZM96.156 59.007C95.9668 59.1862 95.6506 59.3432 95.6128 59.5502C95.5081 60.1223 95.5215 60.7155 95.4825 61.3744C96.1282 60.7144 96.3664 59.9687 96.156 59.0059V59.007ZM72.1906 61.1975C71.2956 61.9576 71.0251 63.0417 71.4548 64.009C71.7164 63.0106 71.9535 62.1046 72.1906 61.1975ZM93.569 58.288C92.8666 57.6736 92.1642 57.0592 91.4718 56.4526C91.7957 57.8183 92.5248 58.4416 93.569 58.288ZM80.3256 55.8182C79.5164 56.161 78.6548 56.5272 77.841 56.8734C78.6637 57.3865 79.8102 56.8989 80.3256 55.8182ZM85.6944 52.0851C84.6748 52.1786 83.6373 53.2271 83.5694 54.0997C84.2462 53.4575 84.9264 52.8119 85.6944 52.0851ZM92.3456 54.1732C91.9571 52.9344 91.0699 52.084 90.195 52.1274C90.9185 52.8153 91.6154 53.4775 92.3456 54.1732ZM73.8091 71.6243C73.9761 70.7338 74.1409 69.8512 74.3134 68.9319C73.4574 69.7243 73.2737 70.785 73.8091 71.6243ZM80.7709 60.1801C80.8544 60.9927 81.1282 61.6304 81.7805 62.188C81.6881 61.5091 81.6113 60.937 81.5312 60.3493C81.3253 60.3037 81.0837 60.2503 80.7709 60.1801ZM94.0721 62.0934C94.71 61.6749 95.1085 60.8079 94.9849 60.1924C94.7423 60.2492 94.5007 60.307 94.3104 60.3515C94.2302 60.9348 94.1545 61.488 94.0721 62.0934ZM101.516 68.9185C101.701 69.8612 101.873 70.7416 102.044 71.6142C102.556 70.7327 102.374 69.7188 101.516 68.9185ZM100.615 73.6121C101.135 72.7852 101.037 71.5341 100.357 70.6426C100.447 71.6821 100.53 72.6215 100.615 73.6121ZM93.156 58.9046C93.1382 59.1339 93.0781 59.3431 93.1193 59.5301C93.1571 59.7015 93.2785 59.9431 93.4109 59.9798C93.54 60.0143 93.7905 59.8674 93.8784 59.7305C94.0298 59.4945 94.0977 59.204 94.2169 58.8924C94.0198 58.8801 93.9107 58.8646 93.8039 58.8679C93.6024 58.8735 93.402 58.8901 93.1582 58.9057L93.156 58.9046ZM72.0448 66.3096C72.2908 65.4381 72.5368 64.5666 72.7839 63.6951C72.716 63.6762 72.6492 63.6572 72.5813 63.6383C72.1962 64.4686 71.6819 65.2633 72.0448 66.3096ZM103.778 66.2495C103.83 66.2372 103.881 66.2239 103.934 66.2116C104.062 65.3557 103.707 64.1848 103.045 63.645C103.289 64.5132 103.533 65.3813 103.778 66.2506V66.2495ZM81.5301 58.8935C81.8028 59.3387 81.9909 59.6759 82.218 59.9854C82.2503 60.0299 82.5753 59.9587 82.5909 59.8974C82.67 59.5847 82.6911 59.2574 82.739 58.8935H81.5301ZM75.2073 73.67C75.2707 73.0489 75.3253 72.5737 75.3654 72.0962C75.4043 71.6387 75.4288 71.1791 75.46 70.7205C74.9958 71.6332 74.5962 72.5459 75.2073 73.6689V73.67ZM83.5226 52.4379C83.4803 52.3912 83.4381 52.3444 83.3957 52.2977C82.4863 52.5081 81.9765 53.1347 81.7394 54.0485C82.3338 53.512 82.9282 52.9744 83.5226 52.4379ZM94.0922 54.0418C93.8339 53.1225 93.3397 52.4747 92.4247 52.3044C92.3857 52.3478 92.3467 52.3912 92.3089 52.4335C92.9033 52.97 93.4989 53.5053 94.0933 54.0418H94.0922ZM85.1891 57.9062C86.2354 57.7471 86.7263 57.0915 86.6061 56.0942C86.1475 56.6797 85.6878 57.2674 85.1891 57.9062ZM73.198 66.6891C73.1401 66.6791 73.0811 66.668 73.0232 66.658C72.5735 67.446 72.3208 68.2696 72.7349 69.2101C72.8897 68.3698 73.0433 67.5294 73.198 66.6891ZM90.6625 57.9252C90.1493 57.2696 89.6829 56.6741 89.1909 56.0453C89.1931 57.185 89.6005 57.7159 90.6625 57.9252ZM102.806 66.6446C102.75 66.6591 102.695 66.6735 102.639 66.6891C102.794 67.5105 102.947 68.3319 103.102 69.1534C103.156 69.1433 103.209 69.1322 103.262 69.1222C103.485 68.2273 103.275 67.4126 102.806 66.6446ZM97.2803 58.0799C97.2157 58.0487 97.1512 58.0175 97.0855 57.9864C96.9541 58.1633 96.7237 58.3325 96.7115 58.5173C96.6803 58.9992 96.7449 59.4867 96.7794 60.1C97.2057 59.3999 97.4372 58.7844 97.2803 58.081V58.0799ZM78.6258 58.0665C78.3776 58.6264 78.5958 59.5201 79.0978 60.0043C79.0859 58.8052 78.9286 58.1593 78.6258 58.0665ZM85.6199 53.9773C86.1464 53.4096 86.6239 52.8932 87.1304 52.3467C86.2878 52.3033 85.6711 52.9622 85.6199 53.9773ZM88.6933 52.3311C89.2154 52.8876 89.6985 53.4029 90.2751 54.0184C90.0659 52.842 89.5772 52.3344 88.6933 52.3311ZM77.0752 70.7761C77.408 70.1083 77.7409 69.4405 78.0737 68.7716C78.0236 68.7471 77.9746 68.7226 77.9245 68.6992C77.221 69.1901 76.995 69.9091 77.0752 70.7761ZM98.7319 70.7216C98.9834 70.0249 98.5771 69.1289 97.7757 68.7872C98.0862 69.416 98.3979 70.0449 98.7319 70.7216ZM71.8789 56.1989C72.6681 55.5678 72.9598 54.8833 72.9053 53.9606C72.5635 54.7052 72.2552 55.3786 71.8789 56.1989ZM76.5409 55.6312C77.2522 56.0764 77.9947 55.9251 78.4488 55.3062C77.8499 55.4086 77.2255 55.5143 76.5409 55.6312ZM97.3872 55.3062C97.917 55.9618 98.704 56.0953 99.2484 55.6201C98.6272 55.5155 98.0027 55.4097 97.3872 55.3062ZM103.964 56.1354C103.635 55.4554 103.313 54.7853 102.999 54.1353C102.831 54.8799 103.222 55.7002 103.964 56.1354ZM76.8325 67.3892C76.7846 67.367 76.7368 67.3436 76.6889 67.3213C76.1179 67.6986 75.9754 68.2618 76.1045 68.9452C76.3472 68.4265 76.5898 67.9079 76.8325 67.3892ZM99.1794 67.3425C99.1259 67.3681 99.0725 67.3937 99.0179 67.4193C99.2595 67.9246 99.5011 68.4288 99.7437 68.9341C99.8818 68.2563 99.7092 67.7198 99.1794 67.3425ZM87.9252 52.8141C87.4154 53.2838 87.716 53.6667 87.9263 54.1576C88.1289 53.6645 88.4072 53.2772 87.9252 52.8141ZM100.069 65.5037C100.298 65.9979 100.526 66.491 100.756 66.9852C100.877 66.3274 100.697 65.8109 100.069 65.5037ZM75.8117 65.4102C75.1449 65.7931 74.9301 66.2762 75.057 67.0631C75.3164 66.4955 75.5468 65.9901 75.8117 65.4102ZM80.9869 52.9633C80.3267 53.0256 80.0128 53.4508 79.7546 53.935C79.7891 53.9717 79.8236 54.0073 79.8581 54.044C80.2343 53.6845 80.6106 53.3239 80.9869 52.9644V52.9633ZM94.8636 52.9722C95.2387 53.3284 95.6139 53.6856 95.989 54.0418L96.0948 53.9249C95.8109 53.4642 95.5226 53.0078 94.8636 52.9722ZM74.8455 63.7997C74.7731 63.7719 74.7019 63.7452 74.6296 63.7173C74.4782 64.1414 74.3268 64.5644 74.1754 64.9884C74.2422 65.0129 74.309 65.0374 74.3757 65.063C74.5327 64.6423 74.6885 64.2204 74.8455 63.7997ZM101.466 65.0708L101.668 64.9973C101.518 64.5744 101.368 64.1514 101.218 63.7296C101.147 63.7552 101.076 63.7808 101.006 63.8064C101.16 64.2282 101.312 64.6501 101.466 65.0719V65.0708Z" fill="white"/>
<path d="M86.015 51.2771C86.9568 50.9587 87.1805 50.1496 87.4711 49.3716C87.5579 49.1378 87.7761 48.9531 87.9341 48.746C88.0877 48.9609 88.267 49.1634 88.3916 49.3949C88.6421 49.8624 88.8258 50.3699 89.113 50.8118C89.261 51.0389 89.5727 51.158 89.8132 51.464H86.0963C86.0685 51.4017 86.0417 51.3394 86.0139 51.2782L86.015 51.2771Z" fill="white"/>
<path d="M125.417 68.5078C125.407 68.9753 124.941 69.4127 124.465 69.4027C123.967 69.3927 123.567 68.9753 123.568 68.47C123.569 67.9446 124.006 67.5306 124.534 67.5551C125.028 67.5784 125.428 68.0103 125.418 68.5078H125.417ZM123.922 68.2184C123.808 68.5445 123.839 68.8829 124.272 69.0476C124.585 69.1667 124.871 69.0977 124.955 68.8384C124.597 68.6236 124.291 68.441 123.922 68.2195V68.2184Z" fill="white"/>
<path d="M51.4356 68.4789C51.4367 68.9742 51.0204 69.3982 50.5262 69.406C50.0364 69.4138 49.5967 68.9897 49.59 68.5034C49.5833 67.9747 50.0096 67.5439 50.5306 67.5551C51.036 67.5651 51.4334 67.9713 51.4345 68.48L51.4356 68.4789ZM50.0386 68.8428C50.2267 69.1189 50.5339 69.2112 50.8701 68.9697C51.1651 68.7571 51.2419 68.4599 51.0538 68.2318C50.7076 68.4399 50.4059 68.6225 50.0386 68.8428Z" fill="white"/>
<path d="M99.8551 43.8042C100.994 42.9928 101.771 41.931 102.165 40.5742C101.406 41.4068 100.542 42.0467 99.392 42.2382C100.49 41.4958 101.166 40.4963 101.406 39.1451C98.7252 41.6349 97.1557 41.7652 93.9698 39.7383C94.4785 40.9549 95.3 41.7574 96.3709 42.3495C95.5026 42.5053 94.5041 42.0579 93.0147 40.8592C93.0804 41.8509 94.2347 42.9917 96.3408 44.0769C94.7668 43.9055 93.441 43.4759 92.624 42.2482C91.8692 41.1151 91.2581 39.8764 90.6848 38.6376C90.3286 37.8673 90.0047 37.1261 89.2644 36.6408C89.0596 36.5072 88.9193 36.2757 88.7679 36.0242C90.6058 36.7632 92.2299 36.0676 93.8573 35.3842C94.2158 35.2339 94.5787 35.0903 94.9483 34.9679C96.5033 34.4548 98.0952 34.1632 99.7048 34.6117C103.777 35.7448 104.405 40.1835 102.186 42.5843C101.565 43.2566 100.777 43.6428 99.8562 43.8042H99.8551Z" fill="white"/>
<path d="M79.5019 42.394C80.5438 41.744 81.4021 40.9415 81.8351 39.7428C80.7386 40.7022 79.4707 41.1508 78.027 41.1029C76.5565 41.0539 75.4032 40.4117 74.5194 39.2286C74.7019 40.5342 75.3743 41.5081 76.4507 42.2371C75.2696 42.0289 74.3769 41.3778 73.6344 40.4685C74.0296 41.8664 74.8288 42.9706 76.0934 43.8198C74.2845 43.6339 72.7839 42.0779 72.4845 40.1624C72.0003 37.0626 74.2611 34.4837 77.5272 34.4159C78.9398 34.3858 80.2878 34.6952 81.5902 35.2239C82.0544 35.412 82.5164 35.6046 82.9817 35.7893C84.5846 36.426 85.4473 36.4727 87.106 36.0854C86.8744 36.3214 86.6696 36.5952 86.4047 36.7866C85.8692 37.1728 85.5464 37.6837 85.3182 38.2903C84.7872 39.6983 84.1739 41.0684 83.2422 42.2694C82.3383 43.4347 81.0848 43.8933 79.6544 44.0157C81.2173 43.4369 82.3049 42.3862 82.9026 40.8235C81.9487 41.744 80.8533 42.3361 79.5008 42.3962L79.5019 42.394Z" fill="white"/>
<path d="M89.6696 32.3657C91.6187 30.2465 95.0194 29.6499 97.9181 30.9399C94.9849 30.7373 92.2922 31.0757 89.6696 32.3657Z" fill="white"/>
<path d="M86.202 32.3757C83.5861 31.0846 80.89 30.7328 78.0458 30.9365C80.3078 29.5742 84.2061 30.2531 86.202 32.3757Z" fill="white"/>
<path d="M96.0513 46.9485C95.8788 47.0264 95.7118 47.0988 95.547 47.1767C95.4313 47.2323 95.301 47.3659 95.2075 47.3425C94.4038 47.1411 94.1433 47.7298 93.8394 48.2797C93.619 47.4816 94.2146 46.3942 94.9504 46.2083C95.5003 46.0692 95.8866 46.3363 96.0502 46.9474L96.0513 46.9485Z" fill="white"/>
<path d="M82.1056 48.411C81.8807 48.0537 81.7516 47.8311 81.6036 47.6208C81.5412 47.5328 81.4511 47.4304 81.3553 47.4048C80.8366 47.2679 80.3112 47.1533 79.7924 47.032C79.7691 46.2751 80.6652 45.9078 81.2997 46.4065C81.9019 46.8806 82.0889 47.5317 82.1056 48.411Z" fill="white"/>
<path d="M87.9285 66.0135C87.7949 65.6863 87.3185 65.359 87.9018 64.9973C88.5574 65.2967 88.0665 65.6662 87.9285 66.0135Z" fill="white"/>
<path d="M93.8573 63.6584C93.776 64.1247 93.7115 64.5009 93.6402 64.9127C93.1026 64.246 93.1137 64.1626 93.8573 63.6584Z" fill="white"/>
<path d="M82.6399 64.1492C82.5086 64.4519 82.4151 64.6679 82.3205 64.8838C82.2848 64.8838 82.2492 64.886 82.2147 64.8871C82.1468 64.5098 82.0778 64.1314 82.0099 63.7541C82.0455 63.734 82.08 63.714 82.1156 63.6929C82.2871 63.842 82.4585 63.9911 82.6399 64.1492Z" fill="white"/>
<path d="M84.0025 65.674C83.8789 65.1932 83.7865 64.8337 83.6819 64.4252C84.1398 64.6901 84.2466 65.1064 84.0025 65.674Z" fill="white"/>
<path d="M92.1898 64.3763C92.064 64.8315 91.9594 65.2043 91.8403 65.6351C91.4696 65.0652 91.5676 64.6857 92.1898 64.3763Z" fill="white"/>
<path d="M95.0116 63.9733C94.9148 63.7608 94.818 63.5471 94.7089 63.3066C94.8692 63.1586 95.0239 63.0161 95.271 62.788C95.212 63.2499 95.1675 63.5971 95.123 63.9444C95.0862 63.9544 95.0484 63.9633 95.0116 63.9733Z" fill="white"/>
<path d="M89.8265 65.9712C89.5549 65.5805 89.3223 65.1821 90.0503 64.935C89.9679 65.3168 89.8967 65.644 89.8265 65.9712Z" fill="white"/>
<path d="M86.0295 65.9901C85.956 65.6573 85.8825 65.3245 85.8013 64.9539C86.5582 65.1587 86.261 65.5917 86.0295 65.9901Z" fill="white"/>
<path d="M80.7309 63.97C80.6852 63.6339 80.6396 63.2988 80.5773 62.8403C80.8088 63.0139 80.9569 63.1252 81.1506 63.2699C81.0448 63.5081 80.9379 63.7463 80.8322 63.9845C80.7977 63.98 80.7643 63.9745 80.7298 63.97H80.7309Z" fill="white"/>
<path d="M96.7849 61.7807C96.717 62.2737 96.6636 62.6666 96.5935 63.1742C96.3274 62.6333 96.1705 62.2181 96.7849 61.7807Z" fill="white"/>
<path d="M79.0455 61.7295C79.6389 62.1491 79.5476 62.6043 79.2715 63.192C79.1891 62.6611 79.1223 62.2303 79.0455 61.7295Z" fill="white"/>
<path d="M123.922 68.2184C124.292 68.4399 124.597 68.6235 124.955 68.8372C124.871 69.0966 124.585 69.1656 124.272 69.0465C123.839 68.8818 123.808 68.5434 123.922 68.2173V68.2184Z" fill="white"/>
<path d="M50.0386 68.8439C50.4048 68.6236 50.7076 68.441 51.0538 68.2329C51.2419 68.4599 51.1651 68.7582 50.8701 68.9708C50.5339 69.2123 50.2267 69.1211 50.0386 68.8439Z" fill="white"/>
</g>
<defs>
<clipPath id="clip0_2_1041">
<rect width="89" height="84" fill="white" transform="translate(43)"/>
</clipPath>
</defs>
</svg>
